<?xml version="1.0" encoding="UTF-8" standalone="no"?>
<!DOCTYPE svg PUBLIC "-//W3C//DTD SVG 1.1//EN" "http://www.w3.org/Graphics/SVG/1.1/DTD/svg11.dtd">
<svg version="1.1" xmlns="http://www.w3.org/2000/svg" xmlns:xlink="http://www.w3.org/1999/xlink" preserveAspectRatio="xMidYMid meet" viewBox="0 0 640 640" width="640" height="640"><defs><path d="M384.77 315.96L435.82 393.43L333.73 393.43L231.64 393.43L282.68 315.96L333.73 238.49L384.77 315.96Z" id="a3GOQePwt"></path><path d="M486.86 315.96L435.82 393.43L384.77 315.96L333.73 238.49L435.81 238.48L537.91 238.49L486.86 315.96Z" id="c2MAHvmkIq"></path><path d="M384.77 470.9L333.73 548.37L282.68 470.9L231.64 393.43L333.72 393.43L435.82 393.43L384.77 470.9Z" id="eYVuOGKk8"></path><path d="M588.96 470.9L537.91 548.37L486.86 470.9L435.82 393.43L537.91 393.43L640 393.43L588.96 470.9Z" id="cZWV8MpQ"></path><path d="M588.96 315.96L640 393.43L537.91 393.43L435.82 393.43L486.86 315.96L537.91 238.49L588.96 315.96Z" id="b1diVPVzHH"></path><path d="M255.23 161.02L306.27 238.49L204.18 238.49L102.09 238.49L153.13 161.02L204.18 83.55L255.23 161.02Z" id="dmgVTDmWV"></path><path d="M486.86 161.02L537.91 238.49L435.81 238.49L333.73 238.49L384.77 161.02L435.81 83.55L486.86 161.02Z" id="a8KrYBT7un"></path><path d="M153.14 315.96L204.18 393.43L102.09 393.43L0 393.43L51.04 315.96L102.09 238.49L153.14 315.96Z" id="bnr2F7NTT"></path><path d="M255.23 315.96L204.18 393.43L153.14 315.96L102.09 238.49L204.18 238.48L306.27 238.49L255.23 315.96Z" id="b123zY3GRE"></path><path d="M153.14 470.9L102.09 548.37L51.04 470.9L0 393.43L102.09 393.43L204.18 393.43L153.14 470.9Z" id="b1YDpbGH9F"></path></defs><g><g><g><use xlink:href="#a3GOQePwt" opacity="1" fill="#ffb300" fill-opacity="1"></use></g><g><use xlink:href="#c2MAHvmkIq" opacity="1" fill="#d75749" fill-opacity="1"></use></g><g><use xlink:href="#eYVuOGKk8" opacity="1" fill="#f8bf39" fill-opacity="1"></use></g><g><use xlink:href="#cZWV8MpQ" opacity="1" fill="#f1ead1" fill-opacity="1"></use></g><g><use xlink:href="#b1diVPVzHH" opacity="1" fill="#d5cca8" fill-opacity="1"></use></g><g><use xlink:href="#dmgVTDmWV" opacity="1" fill="#003775" fill-opacity="1"></use></g><g><use xlink:href="#a8KrYBT7un" opacity="1" fill="#a83f34" fill-opacity="1"></use></g><g><use xlink:href="#bnr2F7NTT" opacity="1" fill="#00a7bc" fill-opacity="1"></use></g><g><use xlink:href="#b123zY3GRE" opacity="1" fill="#225085" fill-opacity="1"></use><g><use xlink:href="#b123zY3GRE" opacity="1" fill-opacity="0" stroke="#225085" stroke-width="0" stroke-opacity="1"></use></g></g><g><use xlink:href="#b1YDpbGH9F" opacity="1" fill="#28b5c7" fill-opacity="1"></use></g></g></g></svg>